<?xml version="1.0" standalone="no"?>
<!DOCTYPE svg PUBLIC "-//W3C//DTD SVG 20010904//EN"
 "http://www.w3.org/TR/2001/REC-SVG-20010904/DTD/svg10.dtd">
<svg version="1.0" xmlns="http://www.w3.org/2000/svg"
 width="260.000000pt" height="260.000000pt" viewBox="0 0 260.000000 260.000000"
 preserveAspectRatio="xMidYMid meet">
<metadata>
Created by potrace 1.14, written by Peter Selinger 2001-2017
</metadata>
<g transform="translate(0.000000,260.000000) scale(0.100000,-0.100000)"
fill="#000000" stroke="none">
<path d="M0 1300 l0 -1300 1300 0 1300 0 0 1300 0 1300 -1300 0 -1300 0 0
-1300z m709 802 c67 -36 71 -55 71 -352 0 -238 -2 -269 -18 -299 -31 -57 -70
-71 -199 -71 l-113 0 0 370 0 370 113 0 c90 0 119 -4 146 -18z m541 -352 l0
-370 -55 0 -54 0 -3 133 -3 132 -57 3 -58 3 0 -136 0 -135 -56 0 -56 0 4 253
3 254 32 61 32 62 -35 0 -34 0 0 55 0 55 170 0 170 0 0 -370z m387 350 c51
-31 63 -65 63 -185 0 -117 -16 -167 -64 -199 -14 -9 -26 -22 -26 -29 0 -6 20
-75 45 -152 25 -77 45 -143 45 -147 0 -5 -24 -8 -53 -8 l-53 0 -44 135 c-23
74 -47 135 -51 135 -5 0 -9 -61 -9 -135 l0 -135 -55 0 -55 0 0 370 0 370 113
0 c93 0 117 -3 144 -20z m303 -112 c0 -72 3 -128 8 -124 4 4 28 62 54 129 l46
122 57 3 c44 2 56 0 52 -10 -49 -121 -118 -307 -119 -318 0 -8 25 -96 56 -195
31 -99 59 -188 62 -197 5 -16 -2 -18 -50 -18 l-55 0 -46 148 c-25 81 -49 154
-53 162 -4 8 -8 -58 -10 -147 l-2 -163 -55 0 -54 0 -1 370 0 370 55 0 55 0 0
-132z m-433 -753 c69 -21 86 -43 91 -119 l4 -63 -48 -17 c-26 -9 -51 -16 -55
-16 -5 0 -9 28 -11 62 -3 57 -5 63 -29 72 -14 5 -38 6 -53 2 -26 -6 -26 -8
-26 -91 l0 -85 40 -27 c21 -16 64 -43 96 -62 73 -44 84 -70 84 -206 0 -133
-12 -166 -69 -188 -47 -19 -146 -22 -188 -6 -62 23 -73 44 -73 139 l0 87 41
12 c23 7 47 15 55 18 11 4 14 -11 14 -81 0 -76 2 -86 21 -96 23 -13 70 -5 81
13 4 7 8 49 8 93 0 98 -12 117 -105 170 -36 19 -76 49 -90 65 -24 29 -25 37
-25 147 1 123 5 138 49 162 62 32 115 37 188 15z m448 4 c25 -6 56 -22 70 -35
22 -20 25 -31 25 -89 0 -71 -5 -76 -82 -92 l-28 -5 0 66 c0 62 -1 66 -25 72
-14 3 -36 3 -50 0 -24 -6 -25 -9 -25 -89 0 -94 7 -106 88 -146 24 -12 61 -38
82 -58 l40 -35 0 -142 c0 -135 -1 -144 -22 -164 -33 -30 -72 -42 -138 -42 -66
0 -105 12 -137 42 -20 19 -23 31 -23 108 l0 87 41 12 c23 7 47 15 55 18 11 4
14 -11 14 -81 0 -82 1 -87 25 -98 19 -8 31 -8 50 0 24 11 25 15 25 110 0 112
-2 114 -95 167 -27 15 -65 41 -82 58 l-33 31 0 121 c0 141 7 157 78 179 58 18
91 19 147 5z m-1349 -84 c27 -41 52 -75 57 -75 4 0 7 34 7 75 l0 75 55 0 55 0
0 -370 0 -370 -55 0 -55 0 0 194 0 193 -57 89 -58 89 -3 -152 -3 -152 -28 -6
c-16 -3 -40 -3 -55 1 l-26 6 0 239 0 239 59 0 59 0 48 -75z m534 30 l0 -45
-60 7 -60 6 0 -115 0 -115 37 2 c56 4 63 -2 63 -51 l0 -44 -50 0 -50 0 0 -130
0 -131 60 7 60 7 0 -47 0 -46 -115 0 -115 0 0 370 0 370 115 0 115 0 0 -45z
m-590 -501 c0 -16 -8 -23 -27 -27 -47 -9 -83 3 -83 27 0 19 6 21 55 21 49 0
55 -2 55 -21z m-2 -88 c-6 -39 -100 -39 -106 -1 -2 18 3 20 53 20 49 0 55 -2
53 -19z m2 -87 c0 -19 -20 -29 -55 -29 -36 0 -55 10 -55 30 0 14 9 17 55 16
44 0 55 -4 55 -17z"/>
<path d="M560 1750 l0 -290 29 0 c15 0 40 9 55 21 l26 20 0 249 0 249 -26 20
c-15 12 -40 21 -55 21 l-29 0 0 -290z"/>
<path d="M1091 1958 c-46 -45 -63 -83 -69 -155 l-5 -63 62 0 61 0 0 125 c0 69
-4 125 -8 125 -5 0 -23 -14 -41 -32z"/>
<path d="M1490 1895 c0 -80 3 -145 8 -145 16 0 66 40 78 62 14 25 19 175 6
194 -11 16 -48 34 -71 34 -20 0 -21 -5 -21 -145z"/>
</g>
</svg>
